# xmcd
#
# Track frame offsets: 
#        150
#        24756
#        49143
#        74593
#        89214
#        105443
#        125777
#        141165
#        144560
#        162160
#        179058
#        199527
#        232774
#
# Disc length: 4628 seconds
#
# Revision: 0
# Processed by: cddbd v1.5.2PL0 Copyright (c) Steve Scherf et al.
# Submitted via: ExactAudioCopy v1.0b3
#
DISCID=ba12120d
DTITLE=Ноль - Песня о безответной любви к Родине
DYEAR=1991
DGENRE=Rock
TTITLE0=Этот русский Rock-n-roll
TTITLE1=Ехали по улице трамваи
TTITLE2=Улица Ленина
TTITLE3=Цикорий
TTITLE4=Иду, курю
TTITLE5=Песня о настоящем индейце
TTITLE6=Ты - тормоз
TTITLE7=Песня о безответной любви к Родине (Вкус России)
TTITLE8=Человек и кошка
TTITLE9=Я.Л.Ю.Б.Л.Ю.Т.Е.Б.Я.
TTITLE10=Ты - тормоз (демо-версия)
TTITLE11=Человек и кошка (демо-версия)
TTITLE12=Видео: Песня о безответной любви к Родине. Иду, курю. Песня о
TTITLE12=настоящем индейце. Ты - тормоз. Человек и кошка.
EXTD=
EXTT0=
EXTT1=
EXTT2=
EXTT3=
EXTT4=
EXTT5=
EXTT6=
EXTT7=
EXTT8=
EXTT9=
EXTT10=
EXTT11=
EXTT12=
PLAYORDER=
